<?xml version="1.0" encoding="UTF-8" standalone="no"?>
<svg
   version="1.1"
   id="svg868"
   xml:space="preserve"
   width="3840.0002"
   height="1005.9261"
   viewBox="0 0 3840.0002 1005.9262"
   sodipodi:docname="horizfull.svg"
   inkscape:version="1.2.2 (b0a8486541, 2022-12-01)"
   xmlns:inkscape="http://www.inkscape.org/namespaces/inkscape"
   xmlns:sodipodi="http://sodipodi.sourceforge.net/DTD/sodipodi-0.dtd"
   xmlns="http://www.w3.org/2000/svg"
   xmlns:svg="http://www.w3.org/2000/svg"
   xmlns:rdf="http://www.w3.org/1999/02/22-rdf-syntax-ns#"
   xmlns:cc="http://creativecommons.org/ns#"
   xmlns:dc="http://purl.org/dc/elements/1.1/"><metadata
     id="metadata874"><rdf:RDF><cc:Work
         rdf:about=""><dc:format>image/svg+xml</dc:format><dc:type
           rdf:resource="http://purl.org/dc/dcmitype/StillImage" /><dc:title /></cc:Work></rdf:RDF></metadata><defs
     id="defs872"><clipPath
       clipPathUnits="userSpaceOnUse"
       id="clipPath886"><path
         d="M 775.719,387.832 C 775.719,173.621 602.074,0 387.871,0 173.652,0 0,173.621 0,387.832 c 0,214.231 173.645,387.883 387.871,387.883 214.203,0 387.848,-173.652 387.848,-387.883 z"
         id="path884" /></clipPath></defs><sodipodi:namedview
     pagecolor="#ffffff"
     bordercolor="#666666"
     borderopacity="1"
     objecttolerance="10"
     gridtolerance="10"
     guidetolerance="10"
     inkscape:pageopacity="0"
     inkscape:pageshadow="2"
     inkscape:window-width="1918"
     inkscape:window-height="1009"
     id="namedview870"
     showgrid="false"
     inkscape:zoom="0.4"
     inkscape:cx="2621.25"
     inkscape:cy="476.25"
     inkscape:window-x="20"
     inkscape:window-y="20"
     inkscape:window-maximized="0"
     inkscape:current-layer="g890"
     inkscape:document-rotation="0"
     inkscape:showpageshadow="2"
     inkscape:pagecheckerboard="0"
     inkscape:deskcolor="#d1d1d1" /><g
     id="g876"
     inkscape:groupmode="layer"
     inkscape:label="ink_ext_XXXXXX"
     transform="matrix(1.3333333,0,0,-1.3333333,1722.587,554.67746)"><g
       id="g878"
       transform="scale(0.1)"><g
         id="g880"
         transform="matrix(9.7257964,0,0,9.7257964,-12919.403,-3384.3651)"><g
           id="g882"
           clip-path="url(#clipPath886)"><path
             d="M 47.9531,350.156 C 18.8203,423.469 7.375,475.891 98.6875,491.262 c 10.5825,2.078 41.6995,8.965 41.6995,8.965 0,0 38.691,-179.258 -144.33622,-603.418 H 259.004 c 29.394,128.9527 19.008,432.546 -6.602,626.843 L 431.41,562.82 c 0,0 70,-517.7106 231.852,-666.011 h 125.343 l -2.449,265.425 C 660.82,283.457 541.109,490.684 529.234,582.676 l 256.922,53.847 -1.23,117.969 C 757.988,749.18 668.586,666.77 553.461,644.094 306.734,593.445 236.723,646.711 129.789,625.652 45.1406,612.59 -2.71484,565.273 -2.71484,565.273 L -160.09,374.836 -2.71484,319.531 c 15.61714,0 62.09374,1.414 50.66794,30.625 z M 810.625,-187.617 H -31.4688 V 902.148 H 810.625 V -187.617"
             style="fill:#176fc1;fill-opacity:1;fill-rule:nonzero;stroke:none"
             id="path888" /></g></g><g
         id="g890"
         transform="scale(10)"><g
           aria-label="Pacific Institute "
           transform="scale(1,-1)"
           id="text894"
           style="font-size:232.97px;font-family:Garamond;-inkscape-font-specification:Garamond;fill:#176fc1;stroke-width:9.7258"><path
             d="m -374.66245,-250.18208 c 0,-7.45504 0.23297,-8.38692 12.58038,-8.38692 24.22888,0 37.50817,14.67711 37.50817,37.2752 0,20.26839 -9.08583,34.47956 -34.24659,39.13896 -1.39782,0.46594 -1.39782,3.96049 0.23297,4.6594 9.55177,0 21.89918,-2.09673 32.14986,-6.9891 10.01771,-4.89237 23.297,-15.60899 23.297,-37.04223 0,-16.07493 -7.92098,-28.18937 -18.6376,-34.9455 -10.94959,-6.75613 -25.39373,-9.3188 -44.73024,-9.3188 -19.33651,0 -33.78065,0.23297 -46.12806,1.86376 -1.86376,0.93188 -2.09673,4.42643 -0.46594,5.82425 l 8.38692,0.93188 c 10.48365,0.93188 10.94959,5.12534 10.94959,24.92779 v 85.96593 c 0,24.46185 -0.46594,27.25749 -13.9782,29.12125 l -4.89237,0.69891 c -1.39782,1.39782 -0.93188,5.12534 0.46594,5.82425 10.25068,-0.46594 18.6376,-0.69891 28.42234,-0.69891 9.3188,0 17.00681,0.23297 30.2861,0.69891 1.39782,-0.69891 1.86376,-4.6594 0.46594,-5.82425 l -6.29019,-0.69891 c -14.91008,-1.63079 -15.37602,-4.6594 -15.37602,-29.12125 z"
             style="font-family:'Adobe Garamond';-inkscape-font-specification:'Adobe Garamond, Normal'"
             id="path520" /><path
             d="m -267.55669,-149.53904 c -14.91008,5.35831 -19.33651,10.71662 -19.33651,19.80245 0,6.52316 2.79564,12.34741 7.22207,16.3079 3.96049,3.49455 9.55177,5.35831 16.3079,5.35831 6.52316,0 11.6485,-3.02861 16.77384,-5.82425 4.6594,-2.56267 7.45504,-4.6594 9.08583,-4.6594 1.39782,0 2.79564,1.86376 3.72752,3.26158 3.96049,5.12534 9.55177,7.22207 15.14305,7.22207 11.41553,0 19.56948,-9.08583 19.56948,-10.25068 0,-1.63079 -0.69891,-3.02861 -1.63079,-3.02861 -0.69891,0 -1.86376,0.93188 -3.02861,1.63079 -1.39782,0.69891 -3.49455,1.39782 -5.82425,1.39782 -9.08583,0 -11.18256,-9.55177 -10.71662,-20.26839 l 1.39782,-40.53678 c 0.69891,-17.47275 -7.45504,-27.25749 -24.22888,-27.25749 -17.00681,0 -43.33242,16.54087 -43.33242,28.65531 0,2.09673 1.16485,3.26158 3.26158,3.26158 3.49455,0 9.78474,-1.63079 13.27929,-4.42643 1.86376,-1.39782 2.09673,-4.19346 2.3297,-7.92098 0.46594,-7.22207 8.38692,-10.48365 14.91008,-10.48365 14.44414,0 17.23978,11.6485 17.00681,20.26839 l -0.23297,10.71662 c -0.23297,3.49455 -0.46594,5.59128 -3.96049,6.75613 z m -1.39782,17.00681 c 0,-9.08583 6.75613,-12.58038 20.50136,-17.23978 4.19346,-1.39782 8.15395,-2.3297 9.55177,-2.3297 1.39782,0 2.3297,0.46594 2.3297,3.02861 l -0.46594,13.74523 c 0,4.89237 -0.23297,8.15395 -3.02861,10.94959 -2.3297,2.3297 -9.55177,5.82425 -14.21117,5.82425 -11.88147,0 -14.67711,-10.01771 -14.67711,-13.9782 z"
             style="font-family:'Adobe Garamond';-inkscape-font-specification:'Adobe Garamond, Normal'"
             id="path522" /><path
             d="m -130.9811,-206.38372 c -38.67302,0 -56.37875,26.79155 -56.37875,51.95231 0,15.14305 5.35831,26.55858 13.51226,34.47956 8.15396,7.92098 19.56949,11.88147 31.9169,11.88147 13.51226,0 30.98501,-6.52316 38.90599,-23.76294 -0.23297,-2.09673 -2.3297,-3.72752 -4.19346,-3.26158 -5.35831,7.92098 -12.34741,13.9782 -25.85967,13.9782 -24.92779,0 -37.50818,-21.66621 -37.50818,-39.83787 0,-24.69482 15.84197,-37.50817 32.14987,-37.50817 9.55177,0 18.17166,6.05722 23.297,12.34741 0.93188,1.16485 2.09673,1.63079 3.26158,1.63079 2.79564,0 5.12534,-4.42643 5.12534,-8.61989 0,-3.96049 -1.63079,-7.68801 -3.49455,-9.3188 -6.29019,-2.79564 -15.37602,-3.96049 -20.73433,-3.96049 z"
             style="font-family:'Adobe Garamond';-inkscape-font-specification:'Adobe Garamond, Normal'"
             id="path524" /><path
             d="m -71.221796,-137.4246 c 0,16.77384 -0.23297,19.10354 -8.85286,20.26839 l -4.89237,0.69891 c -1.63079,1.16485 -1.16485,5.12534 0.46594,5.82425 6.52316,-0.46594 13.51226,-0.69891 21.89918,-0.69891 8.15395,0 14.91008,0.23297 21.89918,0.69891 1.63079,-0.69891 2.09673,-4.6594 0.46594,-5.82425 l -4.89237,-0.69891 c -8.38692,-1.16485 -8.85286,-3.49455 -8.85286,-20.26839 v -41.9346 c 0,-9.55177 0.46594,-20.73433 0.93188,-28.88828 -0.23297,-0.93188 -1.16485,-1.39782 -2.3297,-1.39782 -5.35831,3.49455 -18.6376,9.55177 -23.99591,11.41553 -1.16485,0.69891 -1.16485,3.26158 -0.23297,4.19346 l 2.09673,1.39782 c 6.29019,4.19346 6.29019,5.35831 6.29019,14.44414 z m 7.68801,-128.1335 c -6.75613,0 -12.58038,4.6594 -12.58038,12.34741 0,6.29019 4.6594,11.41553 11.88147,11.41553 6.29019,0 12.11444,-3.72752 12.11444,-11.88147 0,-6.52316 -4.42643,-11.88147 -11.41553,-11.88147 z"
             style="font-family:'Adobe Garamond';-inkscape-font-specification:'Adobe Garamond, Normal'"
             id="path526" /><path
             d="m 32.220171,-193.3374 c 2.56267,-0.93188 4.19346,-7.45504 1.63079,-9.78474 H 7.2923812 c -3.9604901,0 -3.9604901,-0.23297 -3.9604901,-6.52316 v -6.75613 c 0,-11.6485 0.93188,-28.65531 5.1253401,-39.37193 3.4945498,-8.38692 9.3187998,-12.81335 16.5408698,-12.81335 7.68801,0 14.21117,5.12534 18.6376,10.25068 1.63079,1.86376 3.02861,2.79564 5.59128,2.79564 4.42643,0 8.85286,-3.72752 8.85286,-8.38692 0,-8.38692 -10.48365,-13.9782 -22.83106,-13.9782 -23.06403,0 -36.11034988,16.3079 -41.9345999,29.58719 -5.5912801,13.04632 -7.2220701,27.49046 -7.2220701,41.00272 0,2.3297 -1.63079,3.72752 -3.49455,4.6594 l -10.01771,4.89237 c -0.93188,1.39782 -0.69891,3.49455 0.69891,4.42643 h 8.15395 c 4.6594,0 4.6594,0.46594 4.6594,6.75613 v 49.15667 c 0,16.77384 -0.23297,19.10354 -8.85286,20.26839 l -5.35831,0.69891 c -1.63079,1.16485 -1.16485,5.12534 0.46594,5.82425 6.9891,-0.46594 13.9782,-0.69891 22.3651201,-0.69891 8.15395,0 14.9100801,0.23297 25.3937299,0.69891 1.63079,-0.69891 2.09673,-4.6594 0.46594,-5.82425 l -8.38692,-0.69891 c -8.3869199,-0.69891 -8.8528599,-3.49455 -8.8528599,-20.26839 v -49.15667 c 0,-6.29019 0,-6.75613 3.9604901,-6.75613 z"
             style="font-family:'Adobe Garamond';-inkscape-font-specification:'Adobe Garamond, Normal'"
             id="path528" /><path
             d="m 66.639505,-137.4246 c 0,16.77384 -0.23297,19.10354 -8.85286,20.26839 l -4.89237,0.69891 c -1.63079,1.16485 -1.16485,5.12534 0.46594,5.82425 6.52316,-0.46594 13.51226,-0.69891 21.89918,-0.69891 8.15395,0 14.91008,0.23297 21.89918,0.69891 1.63079,-0.69891 2.09673,-4.6594 0.46594,-5.82425 l -4.89237,-0.69891 c -8.38692,-1.16485 -8.85286,-3.49455 -8.85286,-20.26839 v -41.9346 c 0,-9.55177 0.46594,-20.73433 0.93188,-28.88828 -0.23297,-0.93188 -1.16485,-1.39782 -2.3297,-1.39782 -5.35831,3.49455 -18.6376,9.55177 -23.99591,11.41553 -1.16485,0.69891 -1.16485,3.26158 -0.23297,4.19346 l 2.09673,1.39782 c 6.29019,4.19346 6.29019,5.35831 6.29019,14.44414 z m 7.68801,-128.1335 c -6.75613,0 -12.58038,4.6594 -12.58038,12.34741 0,6.29019 4.6594,11.41553 11.88147,11.41553 6.29019,0 12.11444,-3.72752 12.11444,-11.88147 0,-6.52316 -4.42643,-11.88147 -11.41553,-11.88147 z"
             style="font-family:'Adobe Garamond';-inkscape-font-specification:'Adobe Garamond, Normal'"
             id="path530" /><path
             d="m 166.58688,-206.38372 c -38.67302,0 -56.37874,26.79155 -56.37874,51.95231 0,15.14305 5.35831,26.55858 13.51226,34.47956 8.15395,7.92098 19.56948,11.88147 31.91689,11.88147 13.51226,0 30.98501,-6.52316 38.90599,-23.76294 -0.23297,-2.09673 -2.3297,-3.72752 -4.19346,-3.26158 -5.35831,7.92098 -12.34741,13.9782 -25.85967,13.9782 -24.92779,0 -37.50817,-21.66621 -37.50817,-39.83787 0,-24.69482 15.84196,-37.50817 32.14986,-37.50817 9.55177,0 18.17166,6.05722 23.297,12.34741 0.93188,1.16485 2.09673,1.63079 3.26158,1.63079 2.79564,0 5.12534,-4.42643 5.12534,-8.61989 0,-3.96049 -1.63079,-7.68801 -3.49455,-9.3188 -6.29019,-2.79564 -15.37602,-3.96049 -20.73433,-3.96049 z"
             style="font-family:'Adobe Garamond';-inkscape-font-specification:'Adobe Garamond, Normal'"
             id="path532" /><path
             d="m 296.23456,-146.7434 c 0,24.69482 -0.46594,27.9564 -14.21117,29.58719 l -5.82425,0.69891 c -1.39782,1.39782 -0.93188,5.12534 0.46594,5.82425 11.6485,-0.46594 19.56948,-0.69891 29.35422,-0.69891 9.3188,0 17.23978,0.23297 28.88828,0.69891 1.39782,-0.69891 1.86376,-4.89237 0.46594,-5.82425 l -5.82425,-0.69891 c -13.74523,-1.63079 -14.21117,-4.89237 -14.21117,-29.58719 v -82.93732 c 0,-24.69482 0.46594,-28.65531 14.21117,-29.82016 l 5.82425,-0.46594 c 1.39782,-0.93188 0.93188,-5.12534 -0.46594,-5.82425 -11.6485,0.46594 -19.56948,0.69891 -28.88828,0.69891 -9.78474,0 -17.70572,-0.23297 -29.35422,-0.69891 -1.39782,0.69891 -1.86376,4.89237 -0.46594,5.82425 l 5.82425,0.46594 c 13.74523,1.16485 14.21117,5.12534 14.21117,29.82016 z"
             style="font-family:'Adobe Garamond';-inkscape-font-specification:'Adobe Garamond, Normal'"
             id="path534" /><path
             d="m 376.37864,-137.4246 c 0,16.77384 -0.23297,19.10354 -8.85286,20.26839 l -4.89237,0.69891 c -1.63079,1.16485 -1.16485,5.12534 0.46594,5.82425 6.52316,-0.46594 13.51226,-0.69891 21.89918,-0.69891 8.15395,0 14.91008,0.23297 21.20027,0.69891 1.63079,-0.69891 2.09673,-4.6594 0.46594,-5.82425 l -4.19346,-0.69891 c -8.38692,-1.39782 -8.85286,-3.49455 -8.85286,-20.26839 v -35.64441 c 0,-6.75613 0.46594,-10.01771 3.49455,-13.9782 3.26158,-4.42643 10.94959,-8.15395 19.80245,-8.15395 15.84196,0 21.89918,9.78474 21.89918,23.06403 v 34.71253 c 0,16.77384 -0.23297,18.87057 -8.85286,20.26839 l -4.42643,0.69891 c -1.63079,1.16485 -1.16485,5.12534 0.46594,5.82425 6.29019,-0.46594 13.27929,-0.69891 21.66621,-0.69891 8.15395,0 14.91008,0.23297 21.89918,0.69891 1.63079,-0.69891 2.09673,-4.6594 0.46594,-5.82425 l -5.12534,-0.69891 c -8.38692,-1.16485 -8.85286,-3.49455 -8.85286,-20.26839 v -40.07084 c 0,-15.60899 -7.92098,-28.88828 -27.25749,-28.88828 -11.88147,0 -22.83106,5.82425 -32.6158,11.88147 -1.63079,0 -2.56267,-1.16485 -2.56267,-2.56267 0,-2.09673 0,-5.59128 0.46594,-10.94959 -0.46594,-1.16485 -1.63079,-1.63079 -2.56267,-1.63079 -4.6594,3.49455 -17.93869,9.55177 -23.297,11.41553 -1.16485,0.69891 -1.16485,3.26158 -0.23297,4.19346 l 2.09673,1.39782 c 6.29019,4.19346 6.29019,5.35831 6.29019,14.44414 z"
             style="font-family:'Adobe Garamond';-inkscape-font-specification:'Adobe Garamond, Normal'"
             id="path536" /><path
             d="m 520.40923,-206.38372 c -17.70572,0 -31.68392,9.55177 -31.68392,26.55858 0,12.81335 9.55177,20.9673 23.06403,28.65531 8.61989,4.89237 17.93869,10.71662 17.93869,21.43324 0,10.01771 -7.22207,14.91008 -15.60899,14.91008 -13.27929,0 -20.73433,-11.18256 -24.69482,-23.99591 -1.16485,-1.39782 -4.19346,-1.16485 -5.35831,0.23297 -0.46594,7.68801 0.93188,19.10354 2.79564,23.52997 5.82425,4.6594 13.9782,6.9891 24.92779,6.9891 17.23978,0 33.54768,-8.85286 33.54768,-26.55858 0,-16.54087 -11.41553,-24.46185 -23.76294,-31.45095 -8.15395,-4.6594 -17.93869,-9.78474 -17.93869,-19.33651 0,-8.38692 5.82425,-14.21117 14.91008,-14.21117 9.55177,0 16.54087,6.75613 20.50136,17.00681 1.16485,1.39782 4.6594,0.93188 5.59128,-0.69891 0,-6.29019 -1.63079,-13.74523 -3.72752,-18.87057 -2.09673,-1.86376 -10.71662,-4.19346 -20.50136,-4.19346 z"
             style="font-family:'Adobe Garamond';-inkscape-font-specification:'Adobe Garamond, Normal'"
             id="path538" /><path
             d="m 634.97286,-193.3374 c 2.09673,-1.39782 2.56267,-7.68801 -0.23297,-9.78474 h -25.85967 c -3.96049,0 -4.19346,-0.23297 -4.19346,-4.42643 v -10.48365 c -0.93188,-1.63079 -3.72752,-1.63079 -4.89237,-1.16485 -2.3297,4.6594 -6.75613,10.94959 -9.78474,13.74523 -2.3297,2.09673 -8.15395,5.12534 -14.91008,7.22207 -0.93188,1.39782 -0.69891,3.96049 0.69891,4.89237 h 6.52316 c 4.6594,0 4.89237,0.46594 4.89237,6.75613 v 53.35013 c 0,13.9782 4.19346,25.16076 24.22888,25.16076 11.88147,0 20.26839,-5.82425 24.46185,-10.71662 0.46594,-1.39782 -0.46594,-3.96049 -2.3297,-3.96049 -0.69891,0 -3.72752,2.56267 -5.82425,3.26158 -1.86376,0.69891 -3.96049,1.16485 -6.29019,1.16485 -15.37602,0 -17.00681,-12.34741 -17.00681,-25.85967 v -43.56539 c 0,-4.89237 0.23297,-5.59128 4.19346,-5.59128 z"
             style="font-family:'Adobe Garamond';-inkscape-font-specification:'Adobe Garamond, Normal'"
             id="path540" /><path
             d="m 662.11689,-137.4246 c 0,16.77384 -0.23297,19.10354 -8.85286,20.26839 l -4.89237,0.69891 c -1.63079,1.16485 -1.16485,5.12534 0.46594,5.82425 6.52316,-0.46594 13.51226,-0.69891 21.89918,-0.69891 8.15395,0 14.91008,0.23297 21.89918,0.69891 1.63079,-0.69891 2.09673,-4.6594 0.46594,-5.82425 l -4.89237,-0.69891 c -8.38692,-1.16485 -8.85286,-3.49455 -8.85286,-20.26839 v -41.9346 c 0,-9.55177 0.46594,-20.73433 0.93188,-28.88828 -0.23297,-0.93188 -1.16485,-1.39782 -2.3297,-1.39782 -5.35831,3.49455 -18.6376,9.55177 -23.99591,11.41553 -1.16485,0.69891 -1.16485,3.26158 -0.23297,4.19346 l 2.09673,1.39782 c 6.29019,4.19346 6.29019,5.35831 6.29019,14.44414 z m 7.68801,-128.1335 c -6.75613,0 -12.58038,4.6594 -12.58038,12.34741 0,6.29019 4.6594,11.41553 11.88147,11.41553 6.29019,0 12.11444,-3.72752 12.11444,-11.88147 0,-6.52316 -4.42643,-11.88147 -11.41553,-11.88147 z"
             style="font-family:'Adobe Garamond';-inkscape-font-specification:'Adobe Garamond, Normal'"
             id="path542" /><path
             d="m 765.55416,-193.3374 c 2.09673,-1.39782 2.56267,-7.68801 -0.23297,-9.78474 h -25.85967 c -3.96049,0 -4.19346,-0.23297 -4.19346,-4.42643 v -10.48365 c -0.93188,-1.63079 -3.72752,-1.63079 -4.89237,-1.16485 -2.3297,4.6594 -6.75613,10.94959 -9.78474,13.74523 -2.3297,2.09673 -8.15395,5.12534 -14.91008,7.22207 -0.93188,1.39782 -0.69891,3.96049 0.69891,4.89237 h 6.52316 c 4.6594,0 4.89237,0.46594 4.89237,6.75613 v 53.35013 c 0,13.9782 4.19346,25.16076 24.22888,25.16076 11.88147,0 20.26839,-5.82425 24.46185,-10.71662 0.46594,-1.39782 -0.46594,-3.96049 -2.3297,-3.96049 -0.69891,0 -3.72752,2.56267 -5.82425,3.26158 -1.86376,0.69891 -3.96049,1.16485 -6.29019,1.16485 -15.37602,0 -17.00681,-12.34741 -17.00681,-25.85967 v -43.56539 c 0,-4.89237 0.23297,-5.59128 4.19346,-5.59128 z"
             style="font-family:'Adobe Garamond';-inkscape-font-specification:'Adobe Garamond, Normal'"
             id="path544" /><path
             d="m 806.90923,-184.48454 c 0,-11.41553 0.23297,-16.3079 0.69891,-20.26839 -0.23297,-0.93188 -0.93188,-1.39782 -2.3297,-1.63079 -5.12534,1.86376 -14.21117,3.96049 -24.92779,4.19346 -1.63079,0.69891 -1.86376,3.96049 -0.46594,5.12534 l 2.79564,1.16485 c 6.9891,3.02861 6.9891,5.12534 6.9891,19.80245 v 38.90599 c 0,18.87057 7.68801,29.12125 28.18937,29.12125 13.74523,0 25.16076,-7.68801 32.14986,-12.11444 1.39782,0 2.09673,1.16485 2.09673,3.26158 v 9.55177 c 0.46594,0.93188 1.63079,1.63079 2.79564,1.63079 7.92098,-4.42643 21.43324,-6.75613 30.51907,-8.61989 1.86377,-0.93188 1.6308,-5.59128 0.23298,-6.75613 -3.26159,0.69891 -6.2902,1.16485 -9.08584,1.16485 -6.52316,0 -7.22207,-6.9891 -7.22207,-25.39373 v -39.13896 c 0,-8.61989 0.23297,-15.84196 0.69891,-20.26839 -0.23297,-0.93188 -0.93188,-1.39782 -2.09673,-1.63079 -5.12534,2.3297 -17.93869,3.96049 -27.25749,4.19346 -1.86376,0.93188 -1.86376,4.19346 -0.23297,5.12534 l 3.02861,1.16485 c 6.9891,2.79564 8.61989,3.26158 8.61989,18.40463 v 38.20708 c 0,7.22207 -1.63079,10.71662 -4.6594,13.51226 -5.12534,4.42643 -12.58038,6.9891 -18.87057,6.9891 -17.70572,0 -21.66621,-10.71662 -21.66621,-26.79155 z"
             style="font-family:'Adobe Garamond';-inkscape-font-specification:'Adobe Garamond, Normal'"
             id="path546" /><path
             d="m 956.87905,-193.3374 c 2.09673,-1.39782 2.56267,-7.68801 -0.23297,-9.78474 h -25.85967 c -3.96049,0 -4.19346,-0.23297 -4.19346,-4.42643 v -10.48365 c -0.93188,-1.63079 -3.72752,-1.63079 -4.89237,-1.16485 -2.3297,4.6594 -6.75613,10.94959 -9.78474,13.74523 -2.3297,2.09673 -8.15395,5.12534 -14.91008,7.22207 -0.93188,1.39782 -0.69891,3.96049 0.69891,4.89237 h 6.52316 c 4.6594,0 4.89237,0.46594 4.89237,6.75613 v 53.35013 c 0,13.9782 4.19346,25.16076 24.22888,25.16076 11.88147,0 20.26839,-5.82425 24.46185,-10.71662 0.46594,-1.39782 -0.46594,-3.96049 -2.3297,-3.96049 -0.69891,0 -3.72752,2.56267 -5.82425,3.26158 -1.86376,0.69891 -3.96049,1.16485 -6.29019,1.16485 -15.37602,0 -17.00681,-12.34741 -17.00681,-25.85967 v -43.56539 c 0,-4.89237 0.23297,-5.59128 4.19346,-5.59128 z"
             style="font-family:'Adobe Garamond';-inkscape-font-specification:'Adobe Garamond, Normal'"
             id="path548" /><path
             d="m 1034.5775,-170.97228 c 9.7847,0 13.0463,-0.23297 13.7452,-1.63079 0.466,-0.93188 0.9319,-2.79564 0.9319,-6.05722 0,-13.9782 -13.0463,-27.72343 -33.0817,-27.72343 -27.95642,0 -46.82699,23.99591 -46.82699,52.65122 0,10.25068 2.79564,21.20027 9.78474,30.2861 6.75613,8.85286 18.6376,15.37602 33.78065,15.37602 12.1144,0 28.8883,-5.82425 36.5763,-21.66621 -0.233,-2.09673 -1.8638,-3.49455 -4.1935,-2.79564 -7.222,9.08583 -13.7452,11.41553 -21.4332,11.41553 -24.9278,0 -38.67303,-20.03542 -38.67303,-43.56539 0,-5.82425 0.23297,-6.29019 6.29019,-6.29019 z m -45.19617,-6.9891 c -1.63079,0 -1.63079,-0.69891 -1.63079,-1.16485 0.23297,-7.68801 12.11444,-20.26839 25.85966,-20.26839 13.5123,0 17.9387,8.15395 17.9387,14.67711 0,3.02861 -0.6989,3.96049 -1.3978,4.42643 -1.8638,1.39782 -6.9891,2.3297 -24.2289,2.3297 z"
             style="font-family:'Adobe Garamond';-inkscape-font-specification:'Adobe Garamond, Normal'"
             id="path550" /></g><g
           aria-label="for the"
           transform="scale(1,-1)"
           id="text898"
           style="font-size:133.013px;font-family:Cmti12;-inkscape-font-specification:Cmti12;fill:#176fc1;stroke-width:9.7258"><path
             d="m 1218.3438,-158.15254 c 1.4631,-0.53205 2.3942,-4.25641 0.9311,-5.58654 h -15.1635 c -2.2612,0 -2.2612,-0.13302 -2.2612,-3.72437 v -3.85738 c 0,-6.65065 0.532,-16.36059 2.9263,-22.47919 1.9951,-4.78847 5.3205,-7.31572 9.4439,-7.31572 4.3894,0 8.1138,2.92629 10.641,5.85257 0.9311,1.06411 1.7292,1.59616 3.1923,1.59616 2.5273,0 5.0545,-2.12821 5.0545,-4.78847 0,-4.78847 -5.9856,-7.98078 -13.0353,-7.98078 -13.1682,0 -20.617,9.31091 -23.9423,16.89265 -3.1923,7.44873 -4.1234,15.69554 -4.1234,23.41029 0,1.33013 -0.9311,2.12821 -1.9952,2.66026 l -5.7195,2.79327 c -0.5321,0.79808 -0.3991,1.9952 0.399,2.52725 h 4.6554 c 2.6603,0 2.6603,0.26603 2.6603,3.85738 v 28.06574 c 0,9.57694 -0.133,10.90707 -5.0545,11.57213 l -3.0593,0.39904 c -0.9311,0.66507 -0.6651,2.92629 0.266,3.32533 3.9904,-0.26603 7.9808,-0.39904 12.7693,-0.39904 4.6554,0 8.5128,0.13301 14.4984,0.39904 0.9311,-0.39904 1.1971,-2.66026 0.266,-3.32533 l -4.7884,-0.39904 c -4.7885,-0.39904 -5.0545,-1.99519 -5.0545,-11.57213 v -28.06574 c 0,-3.59135 0,-3.85738 2.2612,-3.85738 z"
             style="font-family:'Adobe Garamond';-inkscape-font-specification:'Adobe Garamond, Normal'"
             id="path553" /><path
             d="m 1257.0173,-165.60127 c -15.6956,0 -28.3318,11.97117 -28.3318,28.73081 0,16.62663 11.9712,27.40068 27.2676,27.40068 16.6267,0 28.0658,-11.97117 28.0658,-28.5978 0,-16.36059 -12.1042,-27.53369 -27.0016,-27.53369 z m 15.5625,29.6619 c 0,10.242 -3.5914,22.4792 -15.2965,22.4792 -11.7052,0 -17.1587,-13.03527 -17.1587,-25.13946 0,-14.63143 6.5176,-23.01125 15.2965,-23.01125 12.6362,0 17.1587,14.36541 17.1587,25.67151 z"
             style="font-family:'Adobe Garamond';-inkscape-font-specification:'Adobe Garamond, Normal'"
             id="path555" /><path
             d="m 1308.3655,-126.22942 c 0,9.57694 -0.133,10.77405 -5.0545,11.57213 l -2.5273,0.39904 c -0.9311,0.66507 -0.665,2.92629 0.2661,3.32533 3.4583,-0.26603 7.4487,-0.39904 12.2372,-0.39904 4.6554,0 8.5128,0.13301 14.7644,0.39904 0.9311,-0.39904 1.1971,-2.66026 0.266,-3.32533 l -4.7884,-0.39904 c -5.0545,-0.39904 -5.3206,-1.99519 -5.3206,-11.57213 v -18.08977 c 0,-4.52244 0.3991,-8.37982 1.7292,-10.242 1.0641,-1.46314 2.6603,-2.66026 4.7885,-2.66026 1.8622,0 3.8574,0.79808 5.8525,2.12821 0.9311,0.53205 1.5962,0.93109 2.9263,0.93109 2.1282,0 5.7196,-1.72917 5.7196,-6.1186 0,-3.19231 -2.6603,-5.32052 -5.9856,-5.32052 -4.9215,0 -9.976,4.12341 -14.6314,7.98078 -0.2661,-0.13301 -0.3991,-0.53205 -0.3991,-1.19711 v -7.71476 c 0,-0.53205 -0.399,-0.79808 -1.0641,-0.93109 -3.3253,1.9952 -10.375,5.45353 -13.4343,6.51764 -0.665,0.39904 -0.665,1.86218 -0.133,2.39423 l 1.1971,0.79808 c 3.5914,2.39423 3.5914,3.0593 3.5914,8.24681 z"
             style="font-family:'Adobe Garamond';-inkscape-font-specification:'Adobe Garamond, Normal'"
             id="path557" /><path
             d="m 1445.2569,-158.15254 c 1.1971,-0.79808 1.4631,-4.38943 -0.133,-5.58654 h -14.7645 c -2.2612,0 -2.3942,-0.13302 -2.3942,-2.52725 v -5.98559 c -0.5321,-0.93109 -2.1282,-0.93109 -2.7933,-0.66506 -1.3301,2.66026 -3.8574,6.25161 -5.5865,7.84777 -1.3302,1.19711 -4.6555,2.92628 -8.5129,4.1234 -0.532,0.79808 -0.399,2.26122 0.3991,2.79327 h 3.7243 c 2.6603,0 2.7933,0.26603 2.7933,3.85738 v 30.45998 c 0,7.98078 2.3942,14.3654 13.8334,14.3654 6.7836,0 11.5721,-3.32533 13.9663,-6.1186 0.266,-0.79808 -0.266,-2.26122 -1.3301,-2.26122 -0.3991,0 -2.1282,1.46314 -3.3253,1.86218 -1.0641,0.39904 -2.2613,0.66507 -3.5914,0.66507 -8.7788,0 -9.7099,-7.04969 -9.7099,-14.76445 v -24.87343 c 0,-2.79327 0.133,-3.19231 2.3942,-3.19231 z"
             style="font-family:'Adobe Garamond';-inkscape-font-specification:'Adobe Garamond, Normal'"
             id="path559" /><path
             d="m 1466.0388,-126.22942 c 0,9.57694 -0.1331,11.04008 -5.0545,11.57213 l -3.3254,0.39904 c -0.931,0.66507 -0.665,2.92629 0.2661,3.32533 4.2564,-0.26603 8.2468,-0.39904 13.0352,-0.39904 4.6555,0 8.5129,0.13301 12.5033,0.39904 0.9311,-0.39904 1.1971,-2.79328 0.266,-3.32533 l -2.7933,-0.39904 c -4.7884,-0.66506 -5.0545,-1.99519 -5.0545,-11.57213 v -22.34618 c 0,-4.65546 0.3991,-5.32052 2.7933,-7.31572 2.3942,-1.99519 5.8526,-3.59135 10.375,-3.59135 8.5128,0 12.6362,5.71956 12.6362,14.23239 v 19.02086 c 0,9.57694 -0.133,10.77405 -5.0544,11.57213 l -2.6603,0.39904 c -0.9311,0.66507 -0.6651,2.92629 0.266,3.32533 3.5914,-0.26603 7.5818,-0.39904 12.3702,-0.39904 4.6555,0 8.5129,0.13301 13.3013,0.39904 0.9311,-0.39904 1.1971,-2.66026 0.2661,-3.32533 l -3.5914,-0.39904 c -4.7885,-0.53205 -5.0545,-1.99519 -5.0545,-11.57213 v -22.21317 c 0,-9.31091 -4.5224,-17.15868 -17.1587,-17.15868 -6.7836,0 -13.1683,3.19232 -17.9567,6.91668 -0.3991,-0.26603 -0.5321,-1.33013 -0.5321,-2.52725 v -27.93273 c 0,-5.85257 0.2661,-12.50322 0.3991,-16.49361 -0.2661,-0.53205 -0.7981,-0.79808 -1.3302,-0.79808 -4.7884,2.52725 -11.04,4.52244 -14.3654,5.58655 -0.665,0.39904 -0.665,2.26122 0,2.66026 l 1.3302,0.79808 c 3.9903,2.39423 4.1234,3.19231 4.1234,11.04008 z"
             style="font-family:'Adobe Garamond';-inkscape-font-specification:'Adobe Garamond, Normal'"
             id="path561" /><path
             d="m 1567.5236,-145.38329 c 5.5866,0 7.4487,-0.13301 7.8478,-0.93109 0.266,-0.53205 0.532,-1.59616 0.532,-3.45834 0,-7.98078 -7.4487,-15.82855 -18.8878,-15.82855 -15.9616,0 -26.7356,13.70034 -26.7356,30.06094 0,5.85257 1.5961,12.10418 5.5865,17.29169 3.8574,5.0545 10.6411,8.77886 19.2869,8.77886 6.9167,0 16.4936,-3.32533 20.883,-12.37021 -0.133,-1.19712 -1.0641,-1.99519 -2.3942,-1.59616 -4.1234,5.18751 -7.8478,6.51764 -12.2372,6.51764 -14.2324,0 -22.0801,-11.43912 -22.0801,-24.87343 0,-3.32532 0.133,-3.59135 3.5913,-3.59135 z m -25.8045,-3.99039 c -0.9311,0 -0.9311,-0.39904 -0.9311,-0.66507 0.133,-4.38942 6.9167,-11.57213 14.7644,-11.57213 7.7148,0 10.242,4.65546 10.242,8.37982 0,1.72917 -0.399,2.26122 -0.798,2.52725 -1.0641,0.79808 -3.9904,1.33013 -13.8334,1.33013 z"
             style="font-family:'Adobe Garamond';-inkscape-font-specification:'Adobe Garamond, Normal'"
             id="path563" /></g><g
           aria-label="Mathematical Sciences"
           transform="scale(1,-1)"
           id="text902"
           style="font-size:232.97px;font-family:Garamond;-inkscape-font-specification:Garamond;fill:#176fc1;stroke-width:9.7258"><path
             d="m -359.5194,5.619741 c -7.22207,-14.9100801 -13.04632,-29.35422 -12.11444,-38.44005 -7.68801,0.69891 -13.9782,0.69891 -19.33651,0.69891 -5.82425,0 -11.41553,-0.23297 -18.40463,-0.69891 -1.86376,0.93188 -2.09673,4.42643 -0.93188,5.82425 l 3.72752,0.46594 c 14.21117,2.3297 16.07493,5.35831 15.60899,20.0354199 -0.46594,12.8133501 -1.39782,32.6158001 -2.56267,51.9523101 -1.39782,23.06403 -2.56267,35.87738 -3.96049,51.2534 -1.39782,16.307899 -4.6594,17.938689 -14.44414,19.103539 l -5.12534,0.69891 c -1.39782,1.16485 -0.93188,4.6594 0.46594,5.82425 7.92098,-0.46594 16.3079,-0.69891 23.76294,-0.69891 8.85286,0 17.93869,0.23297 25.85967,0.69891 1.63079,-0.69891 1.86376,-4.42643 0.23297,-5.82425 l -8.85286,-0.69891 c -9.08583,-0.69891 -10.48365,-4.42643 -10.48365,-21.666209 0,-19.80245 0.93188,-40.53678 1.63079,-54.74795 0.69891,-13.51226 1.39782,-27.02452 2.3297,-41.4686601 h 0.46594 c 5.12534,10.7166201 10.01771,22.8310601 14.91008,33.5476801 l 20.9673,44.96321 c 5.35831,11.41553 16.54087,34.246589 20.50136,46.593999 0.46594,0.69891 1.63079,0.93188 2.09673,0.93188 0.93188,0 1.86376,-0.23297 2.3297,-0.93188 4.19346,-10.71662 14.67711,-32.615799 25.16076,-53.117159 l 20.73433,-40.76975 c 4.6594,-9.08583 13.51226,-27.7234301 15.14305,-30.2861001 h 0.46594 l 0.69891,97.1484901 c 0,14.910079 0,18.637599 -11.41553,19.802449 l -6.75613,0.69891 c -1.39782,1.39782 -1.16485,4.6594 0.46594,5.82425 9.55177,-0.46594 20.03542,-0.69891 28.18937,-0.69891 8.38692,0 17.93869,0.23297 27.49046,0.69891 1.63079,-0.93188 1.86376,-4.42643 0.46594,-5.82425 l -7.45504,-0.69891 c -10.94959,-1.16485 -10.71662,-7.22207 -11.41553,-18.870569 -1.86376,-33.54768 -2.09673,-76.64713 -2.56267,-101.3419501 -0.23297,-16.3078999 1.63079,-20.5013599 16.3079,-22.1321499 l 4.89237,-0.46594 c 1.16485,-0.93188 1.16485,-4.89237 -0.23297,-5.82425 -7.22207,0.46594 -14.91008,0.69891 -20.73433,0.69891 -4.6594,0 -9.55177,0 -17.47275,-0.69891 -0.46594,10.71662 -6.9891,23.5299699 -17.70572,44.73024 l -21.89918,44.49727 c -5.82425,11.88147 -11.6485,23.99591 -17.93869,34.9455 h -0.46594 c -5.59128,-10.25068 -10.71662,-20.9673 -16.07493,-31.91689 z"
             style="font-family:'Adobe Garamond';-inkscape-font-specification:'Adobe Garamond, Normal'"
             id="path479" /><path
             d="m -201.91727,83.431721 c -14.91008,5.35831 -19.33651,10.71662 -19.33651,19.802449 0,6.52316 2.79564,12.34741 7.22207,16.3079 3.96049,3.49455 9.55177,5.35831 16.3079,5.35831 6.52316,0 11.6485,-3.02861 16.77384,-5.82425 4.6594,-2.56267 7.45504,-4.6594 9.08583,-4.6594 1.39782,0 2.79564,1.86376 3.72752,3.26158 3.96049,5.12534 9.55177,7.22207 15.14305,7.22207 11.41553,0 19.56948,-9.08583 19.56948,-10.25068 0,-1.63079 -0.69891,-3.02861 -1.63079,-3.02861 -0.69891,0 -1.86376,0.93188 -3.02861,1.63079 -1.39782,0.69891 -3.49455,1.39782 -5.82425,1.39782 -9.08583,0 -11.18256,-9.55177 -10.71662,-20.268389 l 1.39782,-40.53678 c 0.69891,-17.47275 -7.45504,-27.25749 -24.22888,-27.25749 -17.00681,0 -43.33242,16.54087 -43.33242,28.65531 0,2.09673 1.16485,3.26158 3.26158,3.26158 3.49455,0 9.78474,-1.63079 13.27929,-4.42643 1.86376,-1.39782 2.09673,-4.19346 2.3297,-7.92098 0.46594,-7.22207 8.38692,-10.48365 14.91008,-10.48365 14.44414,0 17.23978,11.6485 17.00681,20.26839 l -0.23297,10.71662 c -0.23297,3.49455 -0.46594,5.59128 -3.96049,6.75613 z m -1.39782,17.006809 c 0,-9.085829 6.75613,-12.580379 20.50136,-17.239779 4.19346,-1.39782 8.15395,-2.3297 9.55177,-2.3297 1.39782,0 2.3297,0.46594 2.3297,3.02861 l -0.46594,13.74523 c 0,4.892369 -0.23297,8.153949 -3.02861,10.949589 -2.3297,2.3297 -9.55177,5.82425 -14.21117,5.82425 -11.88147,0 -14.67711,-10.01771 -14.67711,-13.9782 z"
             style="font-family:'Adobe Garamond';-inkscape-font-specification:'Adobe Garamond, Normal'"
             id="path481" /><path
             d="m -66.501386,39.633361 c 2.09673,-1.39782 2.56267,-7.68801 -0.23297,-9.78474 h -25.85967 c -3.96049,0 -4.19346,-0.23297 -4.19346,-4.42643 v -10.48365 c -0.93188,-1.63079 -3.727524,-1.63079 -4.892374,-1.16485 -2.3297,4.6594 -6.75613,10.94959 -9.78474,13.74523 -2.3297,2.09673 -8.15395,5.12534 -14.91008,7.22207 -0.93188,1.39782 -0.69891,3.96049 0.69891,4.89237 h 6.52316 c 4.6594,0 4.89237,0.46594 4.89237,6.75613 v 53.35013 c 0,13.978199 4.19346,25.160759 24.228884,25.160759 11.88147,0 20.26839,-5.82425 24.46185,-10.71662 0.46594,-1.39782 -0.46594,-3.96049 -2.3297,-3.96049 -0.69891,0 -3.72752,2.56267 -5.82425,3.26158 -1.86376,0.69891 -3.96049,1.16485 -6.29019,1.16485 -15.37602,0 -17.00681,-12.34741 -17.00681,-25.859669 v -43.56539 c 0,-4.89237 0.23297,-5.59128 4.19346,-5.59128 z"
             style="font-family:'Adobe Garamond';-inkscape-font-specification:'Adobe Garamond, Normal'"
             id="path483" /><path
             d="m -46.350599,95.546161 c 0,16.773839 -0.23297,19.336509 -8.85286,20.268389 l -5.82425,0.69891 c -1.63079,1.16485 -1.16485,5.12534 0.46594,5.82425 7.45504,-0.46594 14.44414,-0.69891 22.83106,-0.69891 8.15395,0 14.91008,0.23297 21.89918,0.69891 1.63079,-0.69891 2.09673,-4.89237 0.46594,-5.82425 l -4.89237,-0.69891 c -8.38692,-1.16485 -8.85286,-3.49455 -8.85286,-20.268389 v -39.13896 c 0,-8.15395 0.69891,-9.3188 4.89237,-12.81335 4.19346,-3.49455 10.25068,-6.29019 18.1716601,-6.29019 14.9100801,0 22.1321499,10.01771 22.1321499,24.92779 v 33.31471 c 0,16.773839 -0.23297,18.870569 -8.8528598,20.268389 l -4.6594001,0.69891 c -1.63078997,1.16485 -1.16485,5.12534 0.46594,5.82425 6.2901901,-0.46594 13.2792899,-0.69891 21.6662099,-0.69891 8.15395,0 14.91008,0.23297 23.297,0.69891 1.63079,-0.69891 2.09673,-4.6594 0.46594,-5.82425 l -6.29019,-0.69891 c -8.38692,-0.93188 -8.85286,-3.49455 -8.85286,-20.268389 v -38.90599 c 0,-16.3079 -7.92098,-30.05313 -30.0531299,-30.05313 -11.88147,0 -23.0640301,5.59128 -31.4509501,12.11444 -0.69891,-0.46594 -0.93188,-2.3297 -0.93188,-4.42643 v -48.9237 c 0,-10.25068 0.46594,-21.89918 0.69891,-28.88828 -0.46594,-0.93188 -1.39782,-1.39782 -2.3297,-1.39782 -8.38692,4.42643 -19.33651,7.92098 -25.16076,9.78474 -1.16485,0.69891 -1.16485,3.96049 0,4.6594 l 2.3297,1.39782 c 6.9891,4.19346 7.22207,5.59128 7.22207,19.3365099 z"
             style="font-family:'Adobe Garamond';-inkscape-font-specification:'Adobe Garamond, Normal'"
             id="path485" /><path
             d="m 125.40896,61.998481 c 9.78474,0 13.04632,-0.23297 13.74523,-1.63079 0.46594,-0.93188 0.93188,-2.79564 0.93188,-6.05722 0,-13.9782 -13.04632,-27.72343 -33.08174,-27.72343 -27.956399,0 -46.826969,23.99591 -46.826969,52.65122 0,10.25068 2.79564,21.200269 9.78474,30.286099 6.75613,8.85286 18.6376,15.37602 33.780649,15.37602 12.11444,0 28.88828,-5.82425 36.57629,-21.66621 -0.23297,-2.09673 -1.86376,-3.494549 -4.19346,-2.79564 -7.22207,9.08583 -13.74523,11.41553 -21.43324,11.41553 -24.927789,0 -38.673019,-20.035419 -38.673019,-43.565389 0,-5.82425 0.23297,-6.29019 6.29019,-6.29019 z m -45.196179,-6.9891 c -1.63079,0 -1.63079,-0.69891 -1.63079,-1.16485 0.23297,-7.68801 12.11444,-20.26839 25.859669,-20.26839 13.51226,0 17.93869,8.15395 17.93869,14.67711 0,3.02861 -0.69891,3.96049 -1.39782,4.42643 -1.86376,1.39782 -6.9891,2.3297 -24.228879,2.3297 z"
             style="font-family:'Adobe Garamond';-inkscape-font-specification:'Adobe Garamond, Normal'"
             id="path487" /><path
             d="m 295.35863,95.546161 c 0,16.773839 -0.23297,18.870569 -8.85286,20.268389 l -4.19346,0.69891 c -1.63079,1.16485 -1.16485,5.12534 0.46594,5.82425 6.52316,-0.46594 12.81335,-0.69891 21.20027,-0.69891 8.15395,0 14.91008,0.23297 22.59809,0.69891 1.63079,-0.69891 2.09673,-4.6594 0.46594,-5.82425 l -5.59128,-0.69891 c -8.38692,-1.16485 -8.85286,-3.49455 -8.85286,-20.268389 v -40.07084 c 0,-16.07493 -9.08583,-28.88828 -27.72343,-28.88828 -10.94959,0 -22.36512,5.35831 -31.68392,11.88147 -2.09673,1.39782 -3.72752,2.3297 -5.82425,1.86376 -6.52316,-9.55177 -13.04632,-13.74523 -24.69482,-13.74523 -11.18256,0 -22.13215,5.59128 -30.98501,11.88147 -1.63079,0 -2.56267,-1.16485 -2.56267,-2.56267 0,-2.09673 0,-5.59128 0.46594,-10.94959 -0.46594,-1.16485 -1.63079,-1.63079 -2.56267,-1.63079 -4.6594,3.49455 -17.93869,9.55177 -23.297,11.41553 -1.16485,0.69891 -1.16485,3.26158 -0.23297,4.19346 l 2.09673,1.39782 c 6.29019,4.19346 6.29019,5.35831 6.29019,14.44414 v 40.76975 c 0,16.773839 -0.23297,19.103539 -8.85286,20.268389 l -5.59128,0.69891 c -1.63079,1.16485 -1.16485,5.12534 0.46594,5.82425 7.22207,-0.46594 14.21117,-0.69891 22.59809,-0.69891 8.15395,0 14.91008,0.23297 21.20027,0.69891 1.63079,-0.69891 2.09673,-4.6594 0.46594,-5.82425 l -4.19346,-0.69891 c -8.38692,-1.39782 -8.85286,-3.49455 -8.85286,-20.268389 v -36.11035 c 0,-7.45504 1.16485,-10.48365 3.49455,-13.27929 3.49455,-4.19346 10.01771,-8.38692 19.56948,-8.38692 14.44414,0 21.43324,8.38692 21.43324,23.99591 v 33.78065 c 0,16.773839 -0.23297,18.870569 -8.85286,20.268389 l -4.19346,0.69891 c -1.63079,1.16485 -1.16485,5.12534 0.46594,5.82425 6.52316,-0.46594 12.81335,-0.69891 21.20027,-0.69891 8.15395,0 14.91008,0.23297 21.89918,0.69891 1.63079,-0.69891 2.09673,-4.6594 0.46594,-5.82425 l -4.89237,-0.69891 C 251.3273,114.6497 250.86136,112.32 250.86136,95.546161 v -35.64441 c 0,-8.15395 0.69891,-10.48365 3.49455,-13.9782 3.26158,-4.19346 10.48365,-8.15395 19.33651,-8.15395 14.67711,0 21.66621,8.15395 21.66621,23.99591 z"
             style="font-family:'Adobe Garamond';-inkscape-font-specification:'Adobe Garamond, Normal'"
             id="path489" /><path
             d="m 356.16362,83.431721 c -14.91008,5.35831 -19.33651,10.71662 -19.33651,19.802449 0,6.52316 2.79564,12.34741 7.22207,16.3079 3.96049,3.49455 9.55177,5.35831 16.3079,5.35831 6.52316,0 11.6485,-3.02861 16.77384,-5.82425 4.6594,-2.56267 7.45504,-4.6594 9.08583,-4.6594 1.39782,0 2.79564,1.86376 3.72752,3.26158 3.96049,5.12534 9.55177,7.22207 15.14305,7.22207 11.41553,0 19.56948,-9.08583 19.56948,-10.25068 0,-1.63079 -0.69891,-3.02861 -1.63079,-3.02861 -0.69891,0 -1.86376,0.93188 -3.02861,1.63079 -1.39782,0.69891 -3.49455,1.39782 -5.82425,1.39782 -9.08583,0 -11.18256,-9.55177 -10.71662,-20.268389 l 1.39782,-40.53678 c 0.69891,-17.47275 -7.45504,-27.25749 -24.22888,-27.25749 -17.00681,0 -43.33242,16.54087 -43.33242,28.65531 0,2.09673 1.16485,3.26158 3.26158,3.26158 3.49455,0 9.78474,-1.63079 13.27929,-4.42643 1.86376,-1.39782 2.09673,-4.19346 2.3297,-7.92098 0.46594,-7.22207 8.38692,-10.48365 14.91008,-10.48365 14.44414,0 17.23978,11.6485 17.00681,20.26839 l -0.23297,10.71662 c -0.23297,3.49455 -0.46594,5.59128 -3.96049,6.75613 z m -1.39782,17.006809 c 0,-9.085829 6.75613,-12.580379 20.50136,-17.239779 4.19346,-1.39782 8.15395,-2.3297 9.55177,-2.3297 1.39782,0 2.3297,0.46594 2.3297,3.02861 l -0.46594,13.74523 c 0,4.892369 -0.23297,8.153949 -3.02861,10.949589 -2.3297,2.3297 -9.55177,5.82425 -14.21117,5.82425 -11.88147,0 -14.67711,-10.01771 -14.67711,-13.9782 z"
             style="font-family:'Adobe Garamond';-inkscape-font-specification:'Adobe Garamond, Normal'"
             id="path491" /><path
             d="m 491.57942,39.633361 c 2.09673,-1.39782 2.56267,-7.68801 -0.23297,-9.78474 h -25.85967 c -3.96049,0 -4.19346,-0.23297 -4.19346,-4.42643 v -10.48365 c -0.93188,-1.63079 -3.72752,-1.63079 -4.89237,-1.16485 -2.3297,4.6594 -6.75613,10.94959 -9.78474,13.74523 -2.3297,2.09673 -8.15395,5.12534 -14.91008,7.22207 -0.93188,1.39782 -0.69891,3.96049 0.69891,4.89237 h 6.52316 c 4.6594,0 4.89237,0.46594 4.89237,6.75613 v 53.35013 c 0,13.978199 4.19346,25.160759 24.22888,25.160759 11.88147,0 20.26839,-5.82425 24.46185,-10.71662 0.46594,-1.39782 -0.46594,-3.96049 -2.3297,-3.96049 -0.69891,0 -3.72752,2.56267 -5.82425,3.26158 -1.86376,0.69891 -3.96049,1.16485 -6.29019,1.16485 -15.37602,0 -17.00681,-12.34741 -17.00681,-25.859669 v -43.56539 c 0,-4.89237 0.23297,-5.59128 4.19346,-5.59128 z"
             style="font-family:'Adobe Garamond';-inkscape-font-specification:'Adobe Garamond, Normal'"
             id="path493" /><path
             d="m 514.05991,95.546161 c 0,16.773839 -0.23297,19.103539 -8.85286,20.268389 l -4.89237,0.69891 c -1.63079,1.16485 -1.16485,5.12534 0.46594,5.82425 6.52316,-0.46594 13.51226,-0.69891 21.89918,-0.69891 8.15395,0 14.91008,0.23297 21.89918,0.69891 1.63079,-0.69891 2.09673,-4.6594 0.46594,-5.82425 l -4.89237,-0.69891 c -8.38692,-1.16485 -8.85286,-3.49455 -8.85286,-20.268389 v -41.9346 c 0,-9.55177 0.46594,-20.73433 0.93188,-28.88828 -0.23297,-0.93188 -1.16485,-1.39782 -2.3297,-1.39782 -5.35831,3.49455 -18.6376,9.55177 -23.99591,11.41553 -1.16485,0.69891 -1.16485,3.26158 -0.23297,4.19346 l 2.09673,1.39782 c 6.29019,4.19346 6.29019,5.35831 6.29019,14.44414 z m 7.68801,-128.1335 c -6.75613,0 -12.58038,4.6594 -12.58038,12.34741 0,6.29019 4.6594,11.4155299 11.88147,11.4155299 6.29019,0 12.11444,-3.7275199 12.11444,-11.8814699 0,-6.52316 -4.42643,-11.88147 -11.41553,-11.88147 z"
             style="font-family:'Adobe Garamond';-inkscape-font-specification:'Adobe Garamond, Normal'"
             id="path495" /><path
             d="m 609.34458,26.587041 c -38.67302,0 -56.37874,26.79155 -56.37874,51.95231 0,15.14305 5.35831,26.558579 13.51226,34.479559 8.15395,7.92098 19.56948,11.88147 31.91689,11.88147 13.51226,0 30.98501,-6.52316 38.90599,-23.76294 -0.23297,-2.096729 -2.3297,-3.727519 -4.19346,-3.261579 -5.35831,7.920979 -12.34741,13.978199 -25.85967,13.978199 -24.92779,0 -37.50817,-21.666209 -37.50817,-39.837869 0,-24.69482 15.84196,-37.50817 32.14986,-37.50817 9.55177,0 18.17166,6.05722 23.297,12.34741 0.93188,1.16485 2.09673,1.63079 3.26158,1.63079 2.79564,0 5.12534,-4.42643 5.12534,-8.61989 0,-3.96049 -1.63079,-7.68801 -3.49455,-9.3188 -6.29019,-2.79564 -15.37602,-3.96049 -20.73433,-3.96049 z"
             style="font-family:'Adobe Garamond';-inkscape-font-specification:'Adobe Garamond, Normal'"
             id="path497" /><path
             d="m 669.09941,83.431721 c -14.91008,5.35831 -19.33651,10.71662 -19.33651,19.802449 0,6.52316 2.79564,12.34741 7.22207,16.3079 3.96049,3.49455 9.55177,5.35831 16.3079,5.35831 6.52316,0 11.6485,-3.02861 16.77384,-5.82425 4.6594,-2.56267 7.45504,-4.6594 9.08583,-4.6594 1.39782,0 2.79564,1.86376 3.72752,3.26158 3.96049,5.12534 9.55177,7.22207 15.14305,7.22207 11.41553,0 19.56948,-9.08583 19.56948,-10.25068 0,-1.63079 -0.69891,-3.02861 -1.63079,-3.02861 -0.69891,0 -1.86376,0.93188 -3.02861,1.63079 -1.39782,0.69891 -3.49455,1.39782 -5.82425,1.39782 -9.08583,0 -11.18256,-9.55177 -10.71662,-20.268389 l 1.39782,-40.53678 c 0.69891,-17.47275 -7.45504,-27.25749 -24.22888,-27.25749 -17.00681,0 -43.33242,16.54087 -43.33242,28.65531 0,2.09673 1.16485,3.26158 3.26158,3.26158 3.49455,0 9.78474,-1.63079 13.27929,-4.42643 1.86376,-1.39782 2.09673,-4.19346 2.3297,-7.92098 0.46594,-7.22207 8.38692,-10.48365 14.91008,-10.48365 14.44414,0 17.23978,11.6485 17.00681,20.26839 l -0.23297,10.71662 c -0.23297,3.49455 -0.46594,5.59128 -3.96049,6.75613 z m -1.39782,17.006809 c 0,-9.085829 6.75613,-12.580379 20.50136,-17.239779 4.19346,-1.39782 8.15395,-2.3297 9.55177,-2.3297 1.39782,0 2.3297,0.46594 2.3297,3.02861 l -0.46594,13.74523 c 0,4.892369 -0.23297,8.153949 -3.02861,10.949589 -2.3297,2.3297 -9.55177,5.82425 -14.21117,5.82425 -11.88147,0 -14.67711,-10.01771 -14.67711,-13.9782 z"
             style="font-family:'Adobe Garamond';-inkscape-font-specification:'Adobe Garamond, Normal'"
             id="path499" /><path
             d="m 773.99602,-14.648649 c 0,-10.25068 0.46594,-21.89918 0.69891,-28.88828 -0.46594,-0.93188 -1.39782,-1.39782 -2.3297,-1.39782 -8.38692,4.42643 -19.33651,7.92098 -25.16076,9.78474 -1.16485,0.69891 -1.16485,3.96049 0,4.6594 l 2.3297,1.39782 c 6.9891,4.19346 7.22207,5.59128 7.22207,19.3365099 V 95.546161 c 0,16.773839 -0.23297,19.103539 -8.85286,20.268389 l -5.35831,0.69891 c -1.63079,1.16485 -1.16485,5.12534 0.46594,5.82425 6.9891,-0.46594 13.9782,-0.69891 22.36512,-0.69891 8.15395,0 14.91008,0.23297 22.59809,0.69891 1.63079,-0.69891 2.09673,-4.6594 0.46594,-5.82425 l -5.59128,-0.69891 c -8.38692,-1.16485 -8.85286,-3.49455 -8.85286,-20.268389 z"
             style="font-family:'Adobe Garamond';-inkscape-font-specification:'Adobe Garamond, Normal'"
             id="path501" /><path
             d="m 949.65542,82.266871 c 0,-22.13215 -14.44414,-35.64441 -29.12125,-44.73024 l -18.6376,-11.6485 c -8.61989,-5.59128 -19.80245,-15.14305 -19.80245,-28.6553101 0,-10.7166199 4.89237,-25.8596699 27.72343,-25.8596699 22.36512,0 28.65531,15.14305 31.68392,26.3256099 1.16485,1.39782003 4.89237,0.69891 5.82425,-0.69891 0,-9.7847399 -2.09673,-22.8310599 -4.19346,-28.4223399 -1.86376,0 -5.12534,-0.69891 -8.15395,-1.39782 -6.05722,-1.86376 -14.44414,-3.02861 -21.66621,-3.02861 -30.2861,0 -47.52588,17.93869 -47.52588,40.07084 0,19.10354 13.51226,32.38283 25.16076,40.07084 l 22.13215,14.44414 c 17.00681,10.94959 19.10354,22.36512 19.10354,32.6158 0,13.978199 -9.55177,26.791549 -29.12125,26.791549 -27.02452,0 -36.57629,-22.831059 -40.07084,-34.712529 -0.93188,-1.39782 -4.42643,-0.93188 -5.59128,0.69891 0.46594,10.94959 3.49455,27.490459 6.29019,32.615799 4.42643,2.56267 16.77384,8.61989 36.34332,8.61989 30.2861,0 49.62261,-17.47275 49.62261,-43.099449 z"
             style="font-family:'Adobe Garamond';-inkscape-font-specification:'Adobe Garamond, Normal'"
             id="path503" /><path
             d="m 1024.2057,26.587041 c -38.673,0 -56.37872,26.79155 -56.37872,51.95231 0,15.14305 5.35831,26.558579 13.51226,34.479559 8.15395,7.92098 19.56946,11.88147 31.91686,11.88147 13.5123,0 30.985,-6.52316 38.906,-23.76294 -0.2329,-2.096729 -2.3297,-3.727519 -4.1934,-3.261579 -5.3583,7.920979 -12.3474,13.978199 -25.8597,13.978199 -24.9278,0 -37.50818,-21.666209 -37.50818,-39.837869 0,-24.69482 15.84198,-37.50817 32.14988,-37.50817 9.5518,0 18.1716,6.05722 23.297,12.34741 0.9319,1.16485 2.0967,1.63079 3.2616,1.63079 2.7956,0 5.1253,-4.42643 5.1253,-8.61989 0,-3.96049 -1.6308,-7.68801 -3.4945,-9.3188 -6.2902,-2.79564 -15.3761,-3.96049 -20.7344,-3.96049 z"
             style="font-family:'Adobe Garamond';-inkscape-font-specification:'Adobe Garamond, Normal'"
             id="path505" /><path
             d="m 1079.3057,95.546161 c 0,16.773839 -0.233,19.103539 -8.8529,20.268389 l -4.8924,0.69891 c -1.6308,1.16485 -1.1648,5.12534 0.466,5.82425 6.5231,-0.46594 13.5122,-0.69891 21.8992,-0.69891 8.1539,0 14.91,0.23297 21.8991,0.69891 1.6308,-0.69891 2.0968,-4.6594 0.466,-5.82425 l -4.8924,-0.69891 c -8.3869,-1.16485 -8.8529,-3.49455 -8.8529,-20.268389 v -41.9346 c 0,-9.55177 0.466,-20.73433 0.9319,-28.88828 -0.2329,-0.93188 -1.1648,-1.39782 -2.3297,-1.39782 -5.3583,3.49455 -18.6376,9.55177 -23.9959,11.41553 -1.1648,0.69891 -1.1648,3.26158 -0.233,4.19346 l 2.0968,1.39782 c 6.2902,4.19346 6.2902,5.35831 6.2902,14.44414 z m 7.688,-128.1335 c -6.7562,0 -12.5804,4.6594 -12.5804,12.34741 0,6.29019 4.6594,11.4155299 11.8815,11.4155299 6.2902,0 12.1144,-3.7275199 12.1144,-11.8814699 0,-6.52316 -4.4264,-11.88147 -11.4155,-11.88147 z"
             style="font-family:'Adobe Garamond';-inkscape-font-specification:'Adobe Garamond, Normal'"
             id="path507" /><path
             d="m 1183.2104,61.998481 c 9.7847,0 13.0463,-0.23297 13.7452,-1.63079 0.4659,-0.93188 0.9319,-2.79564 0.9319,-6.05722 0,-13.9782 -13.0463,-27.72343 -33.0818,-27.72343 -27.9564,0 -46.8269,23.99591 -46.8269,52.65122 0,10.25068 2.7956,21.200269 9.7847,30.286099 6.7561,8.85286 18.6376,15.37602 33.7807,15.37602 12.1144,0 28.8882,-5.82425 36.5763,-21.66621 -0.233,-2.09673 -1.8638,-3.494549 -4.1935,-2.79564 -7.2221,9.08583 -13.7452,11.41553 -21.4332,11.41553 -24.9278,0 -38.6731,-20.035419 -38.6731,-43.565389 0,-5.82425 0.233,-6.29019 6.2902,-6.29019 z m -45.1962,-6.9891 c -1.6308,0 -1.6308,-0.69891 -1.6308,-1.16485 0.233,-7.68801 12.1144,-20.26839 25.8597,-20.26839 13.5122,0 17.9387,8.15395 17.9387,14.67711 0,3.02861 -0.6989,3.96049 -1.3979,4.42643 -1.8637,1.39782 -6.9891,2.3297 -24.2288,2.3297 z"
             style="font-family:'Adobe Garamond';-inkscape-font-specification:'Adobe Garamond, Normal'"
             id="path509" /><path
             d="m 1229.6858,95.546161 c 0,16.773839 -0.233,19.103539 -8.8529,20.268389 l -4.8923,0.69891 c -1.6308,1.16485 -1.1649,5.12534 0.4659,5.82425 6.5232,-0.46594 13.5123,-0.69891 21.8992,-0.69891 8.1539,0 14.9101,0.23297 21.2003,0.69891 1.6307,-0.69891 2.0967,-4.6594 0.4659,-5.82425 l -4.1935,-0.69891 c -8.3869,-1.39782 -8.8528,-3.49455 -8.8528,-20.268389 v -35.64441 c 0,-6.75613 0.4659,-10.01771 3.4945,-13.9782 3.2616,-4.42643 10.9496,-8.15395 19.8025,-8.15395 15.8419,0 21.8992,9.78474 21.8992,23.06403 v 34.71253 c 0,16.773839 -0.233,18.870569 -8.8529,20.268389 l -4.4264,0.69891 c -1.6308,1.16485 -1.1649,5.12534 0.4659,5.82425 6.2902,-0.46594 13.2793,-0.69891 21.6662,-0.69891 8.154,0 14.9101,0.23297 21.8992,0.69891 1.6308,-0.69891 2.0967,-4.6594 0.4659,-5.82425 l -5.1253,-0.69891 c -8.3869,-1.16485 -8.8529,-3.49455 -8.8529,-20.268389 v -40.07084 c 0,-15.60899 -7.9209,-28.88828 -27.2575,-28.88828 -11.8814,0 -22.831,5.82425 -32.6158,11.88147 -1.6307,0 -2.5626,-1.16485 -2.5626,-2.56267 0,-2.09673 0,-5.59128 0.4659,-10.94959 -0.4659,-1.16485 -1.6308,-1.63079 -2.5627,-1.63079 -4.6594,3.49455 -17.9386,9.55177 -23.297,11.41553 -1.1648,0.69891 -1.1648,3.26158 -0.2329,4.19346 l 2.0967,1.39782 c 6.2902,4.19346 6.2902,5.35831 6.2902,14.44414 z"
             style="font-family:'Adobe Garamond';-inkscape-font-specification:'Adobe Garamond, Normal'"
             id="path511" /><path
             d="m 1390.496,26.587041 c -38.673,0 -56.3787,26.79155 -56.3787,51.95231 0,15.14305 5.3583,26.558579 13.5122,34.479559 8.154,7.92098 19.5695,11.88147 31.9169,11.88147 13.5123,0 30.985,-6.52316 38.906,-23.76294 -0.233,-2.096729 -2.3297,-3.727519 -4.1935,-3.261579 -5.3583,7.920979 -12.3474,13.978199 -25.8596,13.978199 -24.9278,0 -37.5082,-21.666209 -37.5082,-39.837869 0,-24.69482 15.842,-37.50817 32.1499,-37.50817 9.5517,0 18.1716,6.05722 23.297,12.34741 0.9318,1.16485 2.0967,1.63079 3.2615,1.63079 2.7957,0 5.1254,-4.42643 5.1254,-8.61989 0,-3.96049 -1.6308,-7.68801 -3.4946,-9.3188 -6.2902,-2.79564 -15.376,-3.96049 -20.7343,-3.96049 z"
             style="font-family:'Adobe Garamond';-inkscape-font-specification:'Adobe Garamond, Normal'"
             id="path513" /><path
             d="m 1496.1458,61.998481 c 9.7847,0 13.0463,-0.23297 13.7452,-1.63079 0.466,-0.93188 0.9319,-2.79564 0.9319,-6.05722 0,-13.9782 -13.0463,-27.72343 -33.0817,-27.72343 -27.9564,0 -46.827,23.99591 -46.827,52.65122 0,10.25068 2.7956,21.200269 9.7847,30.286099 6.7562,8.85286 18.6376,15.37602 33.7807,15.37602 12.1144,0 28.8883,-5.82425 36.5763,-21.66621 -0.233,-2.09673 -1.8638,-3.494549 -4.1935,-2.79564 -7.222,9.08583 -13.7452,11.41553 -21.4332,11.41553 -24.9278,0 -38.673,-20.035419 -38.673,-43.565389 0,-5.82425 0.2329,-6.29019 6.2902,-6.29019 z m -45.1962,-6.9891 c -1.6308,0 -1.6308,-0.69891 -1.6308,-1.16485 0.233,-7.68801 12.1145,-20.26839 25.8597,-20.26839 13.5123,0 17.9387,8.15395 17.9387,14.67711 0,3.02861 -0.6989,3.96049 -1.3978,4.42643 -1.8638,1.39782 -6.9891,2.3297 -24.2289,2.3297 z"
             style="font-family:'Adobe Garamond';-inkscape-font-specification:'Adobe Garamond, Normal'"
             id="path515" /><path
             d="m 1563.1321,26.587041 c -17.7057,0 -31.6839,9.55177 -31.6839,26.55858 0,12.81335 9.5518,20.9673 23.064,28.65531 8.6199,4.89237 17.9387,10.71662 17.9387,21.433239 0,10.01771 -7.2221,14.91008 -15.609,14.91008 -13.2793,0 -20.7343,-11.18256 -24.6948,-23.995909 -1.1649,-1.39782 -4.1935,-1.16485 -5.3583,0.23297 -0.466,7.688009 0.9319,19.103539 2.7956,23.529969 5.8243,4.6594 13.9782,6.9891 24.9278,6.9891 17.2398,0 33.5477,-8.85286 33.5477,-26.558579 0,-16.54087 -11.4155,-24.46185 -23.7629,-31.45095 -8.154,-4.6594 -17.9387,-9.78474 -17.9387,-19.33651 0,-8.38692 5.8242,-14.21117 14.91,-14.21117 9.5518,0 16.5409,6.75613 20.5014,17.00681 1.1649,1.39782 4.6594,0.93188 5.5913,-0.69891 0,-6.29019 -1.6308,-13.74523 -3.7275,-18.87057 -2.0968,-1.86376 -10.7167,-4.19346 -20.5014,-4.19346 z"
             style="font-family:'Adobe Garamond';-inkscape-font-specification:'Adobe Garamond, Normal'"
             id="path517" /></g></g></g></g></svg>
