<?xml version="1.0" encoding="UTF-8" standalone="no"?>
<svg
   version="1.1"
   id="svg886"
   xml:space="preserve"
   width="1185.0018"
   height="1636.5557"
   viewBox="0 0 1185.0018 1636.5557"
   sodipodi:docname="logo2.svg"
   inkscape:version="1.2.2 (b0a8486541, 2022-12-01)"
   xmlns:inkscape="http://www.inkscape.org/namespaces/inkscape"
   xmlns:sodipodi="http://sodipodi.sourceforge.net/DTD/sodipodi-0.dtd"
   xmlns="http://www.w3.org/2000/svg"
   xmlns:svg="http://www.w3.org/2000/svg"
   xmlns:rdf="http://www.w3.org/1999/02/22-rdf-syntax-ns#"
   xmlns:cc="http://creativecommons.org/ns#"
   xmlns:dc="http://purl.org/dc/elements/1.1/"><metadata
     id="metadata892"><rdf:RDF><cc:Work
         rdf:about=""><dc:format>image/svg+xml</dc:format><dc:type
           rdf:resource="http://purl.org/dc/dcmitype/StillImage" /></cc:Work></rdf:RDF></metadata><defs
     id="defs890"><clipPath
       clipPathUnits="userSpaceOnUse"
       id="clipPath904"><path
         d="M 0,0 H 443 V 650 H 0 Z"
         id="path902" /></clipPath><clipPath
       clipPathUnits="userSpaceOnUse"
       id="clipPath910"><path
         d="M 428.863,435.66 C 428.863,317.238 332.855,221.25 214.434,221.25 96,221.25 0,317.238 0,435.66 c 0,118.438 95.9961,214.442 214.434,214.442 118.421,0 214.429,-96.004 214.429,-214.442 z"
         id="path908" /></clipPath></defs><sodipodi:namedview
     pagecolor="#ffffff"
     bordercolor="#666666"
     borderopacity="1"
     objecttolerance="10"
     gridtolerance="10"
     guidetolerance="10"
     inkscape:pageopacity="0"
     inkscape:pageshadow="2"
     inkscape:window-width="1918"
     inkscape:window-height="1009"
     id="namedview888"
     showgrid="false"
     inkscape:zoom="0.67882251"
     inkscape:cx="475.08737"
     inkscape:cy="1560.7909"
     inkscape:window-x="20"
     inkscape:window-y="20"
     inkscape:window-maximized="0"
     inkscape:current-layer="g914"
     inkscape:document-rotation="0"
     inkscape:showpageshadow="2"
     inkscape:pagecheckerboard="0"
     inkscape:deskcolor="#d1d1d1" /><g
     id="g894"
     inkscape:groupmode="layer"
     inkscape:label="ink_ext_XXXXXX"
     transform="matrix(1.3333333,0,0,-1.3333333,563.73867,865.2223)"><g
       id="g896"
       transform="scale(0.1)"><g
         id="g898"
         transform="matrix(20.6,0,0,20.6,-4228.0401,-6900.8326)"><g
           id="g900"
           clip-path="url(#clipPath904)"><g
             id="g906"
             clip-path="url(#clipPath910)"><path
               d="m 26.5156,414.828 c -16.1093,40.535 -22.43747,69.52 28.043,78.016 5.8516,1.14 23.0547,4.953 23.0547,4.953 0,0 21.3867,-99.106 -79.78908,-333.594 H 143.199 c 16.242,71.285 10.508,239.129 -3.652,346.547 l 98.961,21.664 c 0,0 38.695,-286.223 128.176,-368.211 h 69.296 l -1.355,146.735 c -69.297,67.023 -135.48,181.585 -142.043,232.445 l 142.043,29.765 -0.676,65.215 C 419.059,635.434 369.625,589.867 305.98,577.336 169.586,549.336 130.879,578.785 71.7578,567.141 24.957,559.918 -1.5,533.766 -1.5,533.766 L -65.1836,395.23 -1.5,397.902 c 8.63281,0 34.3281,0.782 28.0156,16.926 z M 448.16,117.535 H -17.3984 V 720 H 448.16 V 117.535"
               style="fill:#346fbf;fill-opacity:1;fill-rule:nonzero;stroke:none"
               id="path912" /></g></g></g><g
         id="g914"
         transform="scale(10)"><g
           aria-label="PIMS"
           transform="scale(1,-1)"
           id="text918"
           style="font-size:383.908px;font-family:Garamond;-inkscape-font-specification:Garamond;fill:#346dbf;stroke-width:20.6"><path
             d="m -413.61139,569.35754 v -16.12413 h 4.99081 q 13.05287,0 22.26666,-4.6069 9.21379,-4.9908 9.21379,-23.03448 V 337.47712 q 0,-16.89195 -9.5977,-21.49885 -9.21379,-4.6069 -21.88275,-4.6069 h -4.99081 v -16.12413 h 107.87815 q 48.37241,0 71.40688,21.49885 23.03448,21.11494 23.03448,58.73792 0,22.65057 -9.9816,42.61379 -9.5977,19.96321 -32.24827,32.24827 -22.65058,12.28505 -60.65747,12.28505 h -24.1862 v 64.88045 q 0,16.89195 9.21379,21.49885 9.5977,4.22299 22.26666,4.22299 h 12.66897 v 16.12413 z m 95.59309,-124.77009 q 34.93563,0 49.90804,-15.35632 15.35632,-15.74023 15.35632,-52.21149 0,-32.24827 -13.43678,-47.60459 -13.43678,-15.74023 -46.06896,-15.74023 h -26.10574 v 130.91263 z"
             style="-inkscape-font-specification:'Garamond, Normal'"
             id="path279" /><path
             d="m -189.98807,569.35754 v -16.12413 h 4.99081 q 13.05287,0 22.26666,-4.6069 9.21379,-4.9908 9.21379,-23.03448 V 339.01275 q 0,-18.04368 -9.21379,-22.65057 -9.21379,-4.99081 -22.26666,-4.99081 h -4.99081 v -16.12413 h 111.71723 v 16.12413 h -4.990804 q -13.052872,0 -22.266666,4.99081 -9.21379,4.60689 -9.21379,22.65057 v 186.57928 q 0,18.04368 9.21379,23.03448 9.213794,4.6069 22.266666,4.6069 h 4.990804 v 16.12413 z"
             style="-inkscape-font-specification:'Garamond, Normal'"
             id="path281" /><path
             d="m -46.401723,569.35754 v -16.12413 h 4.990804 q 12.668963,0 21.882755,-4.22299 9.5976999,-4.6069 9.5976999,-21.49885 V 337.47712 q 0,-16.89195 -9.5976999,-21.49885 -9.213792,-4.6069 -21.882755,-4.6069 h -4.990804 v -16.12413 h 87.531021 l 79.468952,219.59537 78.70114,-219.59537 h 85.22757 v 16.12413 h -4.9908 q -13.05287,0 -22.26666,4.99081 -9.2138,4.60689 -9.2138,22.65057 v 186.57928 q 0,18.04368 9.2138,23.03448 9.21379,4.6069 22.26666,4.6069 h 4.9908 v 16.12413 H 182.40744 v -16.12413 h 1.15172 q 12.28506,0 19.57931,-4.22299 7.29425,-4.22299 8.06207,-19.96321 V 324.04034 l -87.91493,245.3172 H 102.55458 L 13.487923,324.80815 v 200.78388 q 0,18.04368 7.294252,23.03448 7.294252,4.6069 20.347123,4.6069 h 1.151724 v 16.12413 z"
             style="-inkscape-font-specification:'Garamond, Normal'"
             id="path283" /><path
             d="m 361.50487,573.19662 q -37.62298,0 -57.20229,-14.97241 -19.1954,-14.97241 -19.1954,-39.15861 0,-11.51724 7.29425,-18.42759 7.29425,-7.29425 20.34712,-7.29425 0.76782,15.74023 6.14253,29.94483 5.37471,13.82068 16.50805,22.65057 11.13333,8.44597 29.177,8.44597 25.72184,0 40.31034,-12.28505 14.58851,-12.66897 14.58851,-36.08735 0,-14.2046 -5.75862,-23.8023 -5.37472,-9.98161 -18.42759,-18.42758 -12.66896,-8.44598 -35.31953,-17.65977 -35.70345,-14.5885 -53.36321,-34.16781 -17.27586,-19.57931 -17.27586,-51.05976 0,-21.88276 10.74942,-37.23908 11.13333,-15.74023 29.94482,-23.80229 19.1954,-8.44598 43.38161,-8.44598 34.16781,0 52.9793,13.05287 18.81149,13.05287 18.81149,29.94482 0,12.28506 -8.44597,18.8115 -8.06207,6.14252 -21.88276,6.14252 0,-11.90114 -4.22299,-23.03448 -3.83908,-11.13333 -13.43678,-18.42758 -9.21379,-7.29425 -25.33792,-7.29425 -22.26667,0 -34.55172,11.90115 -12.28506,11.90114 -12.28506,31.86436 0,15.35632 5.37471,26.10574 5.75862,10.36552 18.81149,18.81149 13.05288,8.06207 35.31954,17.27586 33.7839,13.82069 52.59539,31.86437 18.81149,18.04367 18.81149,47.60459 0,36.47126 -25.72183,56.81838 -25.33793,20.34712 -68.71953,20.34712 z"
             style="-inkscape-font-specification:'Garamond, Normal'"
             id="path285" /></g></g></g></g></svg>
